{"title":"Your Highness 2011 DVDrip English Klam","uid":6573980,"size":1684800545,"categoryP":"video","categoryS":"movies","magnet":"?xt=urn:btih:cee4ab51c0845707dfa892bd2af25853e358cf21&amp;dn=Your+Highness+2011+DVDrip+English+Klam&amp;tr=udp%3A%2F%2Ftracker.openbittorrent.com%3A80&amp;tr=udp%3A%2F%2Fopen.demonii.com%3A1337&amp;tr=udp%3A%2F%2Ftracker.coppersurfer.tk%3A6969&amp;tr=udp%3A%2F%2Fexodus.desync.com%3A6969","seeders":0,"leechers":1,"uploader":"Klambake","files":-1,"time":1312108337,"description":"With: James Franco, Danny McBride and Natalie Portman\n\nDe arrogante, luie prins Thadeous (Danny McBride) wordt door zijn vader gedwongen zijn broer en troonopvolger Fabious (James Franco) te helpen zijn verloofde Belladonna (Zooey Deschanel) te redden uit de handen van de boze tovenaar Leezar (Justin Theroux ), voordat het koninkrijk van hun vader wordt vernietigd. Vergezeld door Isabel (Natalie Portman), een ongrijpbare krijgsvrouw, moeten de broers eerst gruwelijke wezens en verraderlijke ridders verslaan voordat ze Belladonna kunnen bereiken.\n\nWhen Prince Fabious's bride is kidnapped, he goes on a quest to rescue her... accompanied by his lazy useless brother Thadeous.\n\n------------------ Dutch Friends ------------------\nYou can find my Friends at: http://www.Film-Test.nl \n------ They got my dutchs subs ---- and more ------\n\nGeneral:\n\nComplete name                    : Your Highness\\Your Highness.avi\nFormat                           : AVI\nFormat/Info                      : Audio Video Interleave\nFile size                        : 1.57 GiB\nDuration                         : 1h 45mn\nOverall bit rate                 : 2 130 Kbps\n\nVideo:\n\nFormat                           : MPEG-4 Visual\nFormat profile                   : Simple@L3\nFormat settings, BVOP            : No\nFormat settings, QPel            : No\nFormat settings, GMC             : No warppoints\nFormat settings, Matrix          : Default (H.263)\nCodec ID                         : XVID\nCodec ID/Hint                    : XviD\nDuration                         : 1h 45mn\nBit rate                         : 1 671 Kbps\nWidth                            : 720 pixels\nHeight                           : 304 pixels\nDisplay aspect ratio             : 2.35:1\nFrame rate                       : 23.976 fps\nColor space                      : YUV\nChroma subsampling               : 4:2:0\nBit depth                        : 8 bits\nScan type                        : Progressive\nBits/(Pixel*Frame)               : 0.318\nStream size                      : 1.23 GiB (78%)\nWriting library                  : XviD 1.1.2 (UTC 2006-11-01)\n\nAudio:\n\nFormat                           : AC-3\nFormat/Info                      : Audio Coding 3\nMode extension                   : CM (complete main)\nCodec ID                         : 2000\nDuration                         : 1h 45mn\nBit rate mode                    : Constant\nBit rate                         : 448 Kbps\nChannel(s)                       : 6 channels\nChannel positions                : Front: L C R, Side: L R, LFE\nSampling rate                    : 48.0 KHz\nBit depth                        : 16 bits\nStream size                      : 338 MiB (21%)\nAlignment                        : Aligned on interleaves\nInterleave, duration             : 32 ms (0.77 video frame)\nInterleave, preload duration     : 640 ms\n\n","torrent":{"xt":"urn:btih:cee4ab51c0845707dfa892bd2af25853e358cf21","amp;dn":"Your+Highness+2011+DVDrip+English+Klam","amp;tr":["udp%3A%2F%2Ftracker.openbittorrent.com%3A80","udp%3A%2F%2Fopen.demonii.com%3A1337","udp%3A%2F%2Ftracker.coppersurfer.tk%3A6969","udp%3A%2F%2Fexodus.desync.com%3A6969"],"infoHash":"cee4ab51c0845707dfa892bd2af25853e358cf21","infoHashBuffer":{"type":"Buffer","data":[206,228,171,81,192,132,87,7,223,168,146,189,42,242,88,83,227,88,207,33]},"announce":[],"urlList":[]}}